<svg width="188" height="71" viewBox="0 0 188 71" fill="none" xmlns="http://www.w3.org/2000/svg">
<path d="M74 43.28C74 45.76 73.64 48.02 72.92 50.06C72.2 52.1 71.18 53.84 69.86 55.28C68.54 56.72 66.94 57.84 65.06 58.64C63.22 59.44 61.18 59.84 58.94 59.84C56.7 59.84 54.66 59.44 52.82 58.64C50.98 57.84 49.4 56.72 48.08 55.28C46.76 53.84 45.72 52.1 44.96 50.06C44.24 48.02 43.88 45.76 43.88 43.28C43.88 40.8 44.24 38.56 44.96 36.56C45.72 34.52 46.76 32.78 48.08 31.34C49.44 29.9 51.04 28.8 52.88 28.04C54.72 27.24 56.74 26.84 58.94 26.84C61.14 26.84 63.16 27.24 65 28.04C66.88 28.8 68.48 29.9 69.8 31.34C71.12 32.78 72.14 34.52 72.86 36.56C73.62 38.56 74 40.8 74 43.28ZM66.56 43.28C66.56 40.16 65.88 37.7 64.52 35.9C63.2 34.06 61.34 33.14 58.94 33.14C56.54 33.14 54.66 34.06 53.3 35.9C51.98 37.7 51.32 40.16 51.32 43.28C51.32 46.44 51.98 48.94 53.3 50.78C54.66 52.62 56.54 53.54 58.94 53.54C61.34 53.54 63.2 52.62 64.52 50.78C65.88 48.94 66.56 46.44 66.56 43.28ZM87.1794 43.22C87.1794 46.42 87.9394 48.94 89.4594 50.78C90.9794 52.58 93.0794 53.48 95.7594 53.48C96.9194 53.48 97.8994 53.44 98.6994 53.36C99.5394 53.24 100.219 53.12 100.739 53V35C100.099 34.56 99.2394 34.16 98.1594 33.8C97.1194 33.4 95.9994 33.2 94.7994 33.2C92.1594 33.2 90.2194 34.1 88.9794 35.9C87.7794 37.7 87.1794 40.14 87.1794 43.22ZM107.999 58.04C106.559 58.48 104.739 58.88 102.539 59.24C100.379 59.6 98.0994 59.78 95.6994 59.78C93.2194 59.78 90.9994 59.4 89.0394 58.64C87.0794 57.88 85.3994 56.8 83.9994 55.4C82.6394 53.96 81.5794 52.24 80.8194 50.24C80.0994 48.2 79.7394 45.92 79.7394 43.4C79.7394 40.92 80.0394 38.68 80.6394 36.68C81.2794 34.64 82.1994 32.9 83.3994 31.46C84.5994 30.02 86.0594 28.92 87.7794 28.16C89.4994 27.36 91.4794 26.96 93.7194 26.96C95.2394 26.96 96.5794 27.14 97.7394 27.5C98.8994 27.86 99.8994 28.26 100.739 28.7V13.64L107.999 12.44V58.04ZM124.542 59H117.282V27.62H124.542V59ZM125.322 18.44C125.322 19.8 124.882 20.88 124.002 21.68C123.122 22.48 122.082 22.88 120.882 22.88C119.642 22.88 118.582 22.48 117.702 21.68C116.822 20.88 116.382 19.8 116.382 18.44C116.382 17.04 116.822 15.94 117.702 15.14C118.582 14.34 119.642 13.94 120.882 13.94C122.082 13.94 123.122 14.34 124.002 15.14C124.882 15.94 125.322 17.04 125.322 18.44ZM151.684 34.16C151.084 33.96 150.244 33.76 149.164 33.56C148.124 33.32 146.904 33.2 145.504 33.2C144.704 33.2 143.844 33.28 142.924 33.44C142.044 33.6 141.424 33.74 141.064 33.86V59H133.804V29.12C135.204 28.6 136.944 28.12 139.024 27.68C141.144 27.2 143.484 26.96 146.044 26.96C146.524 26.96 147.084 27 147.724 27.08C148.364 27.12 149.004 27.2 149.644 27.32C150.284 27.4 150.904 27.52 151.504 27.68C152.104 27.8 152.584 27.92 152.944 28.04L151.684 34.16ZM156.263 43.46C156.263 40.7 156.663 38.28 157.463 36.2C158.303 34.12 159.403 32.4 160.763 31.04C162.123 29.64 163.683 28.6 165.443 27.92C167.203 27.2 169.003 26.84 170.843 26.84C175.163 26.84 178.523 28.18 180.923 30.86C183.363 33.54 184.583 37.54 184.583 42.86C184.583 43.26 184.563 43.72 184.523 44.24C184.523 44.72 184.503 45.16 184.463 45.56H163.763C163.963 48.08 164.843 50.04 166.403 51.44C168.003 52.8 170.303 53.48 173.303 53.48C175.063 53.48 176.663 53.32 178.103 53C179.583 52.68 180.743 52.34 181.583 51.98L182.543 57.92C182.143 58.12 181.583 58.34 180.863 58.58C180.183 58.78 179.383 58.96 178.463 59.12C177.583 59.32 176.623 59.48 175.583 59.6C174.543 59.72 173.483 59.78 172.403 59.78C169.643 59.78 167.243 59.38 165.203 58.58C163.163 57.74 161.483 56.6 160.163 55.16C158.843 53.68 157.863 51.96 157.223 50C156.583 48 156.263 45.82 156.263 43.46ZM177.323 40.22C177.323 39.22 177.183 38.28 176.903 37.4C176.623 36.48 176.203 35.7 175.643 35.06C175.123 34.38 174.463 33.86 173.663 33.5C172.903 33.1 171.983 32.9 170.903 32.9C169.783 32.9 168.803 33.12 167.963 33.56C167.123 33.96 166.403 34.5 165.803 35.18C165.243 35.86 164.803 36.64 164.483 37.52C164.163 38.4 163.943 39.3 163.823 40.22H177.323Z" fill="black"/>
<rect width="56" height="12" rx="6" fill="black"/>
<rect x="21" y="61" width="43" height="13" rx="6.5" transform="rotate(-90 21 61)" fill="black"/>
<circle cx="121" cy="18" r="5" fill="black"/>
</svg>
