<svg width="80" height="80" viewBox="0 0 80 80" fill="none" xmlns="http://www.w3.org/2000/svg">
<g clip-path="url(#clip0_85_51)">
<mask id="mask0_85_51" style="mask-type:luminance" maskUnits="userSpaceOnUse" x="0" y="0" width="80" height="80">
<path d="M80 0H0V80H80V0Z" fill="white"/>
</mask>
<g mask="url(#mask0_85_51)">
<path d="M16.4008 32.8014C25.4586 32.8014 32.8014 25.4586 32.8014 16.4008C32.8014 7.34303 25.4586 0.000244141 16.4008 0.000244141C7.34301 0.000244141 0.000244141 7.34303 0.000244141 16.4008C0.000244141 25.4586 7.34301 32.8014 16.4008 32.8014Z" fill="#EEEBEA"/>
<path d="M16.4006 0.000244141C19.2763 0.000244175 22.1015 0.756374 24.5928 2.1928C27.084 3.62922 29.1538 5.69544 30.5946 8.18423C32.0353 10.673 32.7963 13.4969 32.8012 16.3726C32.8062 19.2483 32.055 22.0748 30.6228 24.5685C29.1907 27.0622 27.1281 29.1356 24.6418 30.5806C22.1555 32.0256 19.3329 32.7915 16.4572 32.8014C13.5815 32.8113 10.7538 32.065 8.25753 30.6371C5.76132 29.2093 3.68441 27.1503 2.23511 24.6665L16.4006 16.4009V0.000244141Z" fill="#FA6663"/>
<path d="M16.2953 23.5907C20.3245 23.5907 23.5907 20.3245 23.5907 16.2954C23.5907 12.2662 20.3245 9 16.2953 9C12.2662 9 9 12.2662 9 16.2954C9 20.3245 12.2662 23.5907 16.2953 23.5907Z" fill="#EEEBEA"/>
<path d="M16.2953 23.5907C20.3245 23.5907 23.5907 20.3245 23.5907 16.2954C23.5907 12.2662 20.3245 9 16.2953 9C12.2662 9 9 12.2662 9 16.2954C9 20.3245 12.2662 23.5907 16.2953 23.5907Z" stroke="#0D0E10" stroke-width="2" stroke-linecap="round"/>
<path d="M53.0001 2C54.1047 2 55.0001 2.89543 55.0001 4V31.6875H46.7183V4C46.7183 2.89543 47.6137 2 48.7183 2H53.0001Z" fill="#EEEBEA"/>
<path d="M63.0001 11C64.1047 11 65.0001 11.8954 65.0001 13V32.1368H56.7183V13C56.7183 11.8954 57.6137 11 58.7183 11H63.0001Z" fill="#EEEBEA"/>
<path d="M74.0001 7C75.1047 7 76.0001 7.89543 76.0001 9V32.0304H67.7183V9C67.7183 7.89543 68.6137 7 69.7183 7H74.0001Z" fill="#EEEBEA"/>
<path d="M77.0001 31H44.1841" stroke="#0D0E10" stroke-width="2" stroke-linecap="round"/>
<path d="M2 50.6402V78H36" stroke="#0D0E10" stroke-width="2" stroke-linecap="round"/>
<path d="M9 70.4669L14.8265 64.4278L20.653 67.2026L26.4795 61H32.306" stroke="#0D0E10" stroke-width="2" stroke-linecap="round"/>
<path d="M57.2708 61.5416C60.1817 61.5416 62.5415 59.1818 62.5415 56.2708C62.5415 53.3598 60.1817 51 57.2708 51C54.3598 51 52 53.3598 52 56.2708C52 59.1818 54.3598 61.5416 57.2708 61.5416Z" stroke="#0D0E10" stroke-width="2"/>
<path d="M66.0286 78.1633V74.7846C66.0286 69.933 62.2166 66 57.5143 66C52.812 66 49 69.933 49 74.7846V78.1633" stroke="#0D0E10" stroke-width="2"/>
<path d="M73.0311 61.0622C75.2574 61.0622 77.0621 59.2574 77.0621 57.0311C77.0621 54.8048 75.2574 53 73.0311 53C70.8048 53 69 54.8048 69 57.0311C69 59.2574 70.8048 61.0622 73.0311 61.0622Z" stroke="#0D0E10" stroke-width="2"/>
<path d="M79.0234 74.3025V71.7184C79.0234 68.0079 76.108 65 72.5117 65C68.9154 65 66 68.0079 66 71.7184V74.3025" stroke="#0D0E10" stroke-width="2"/>
</g>
</g>
<defs>
<clipPath id="clip0_85_51">
<rect width="80" height="80" fill="white"/>
</clipPath>
</defs>
</svg>
