<svg width="80" height="80" viewBox="0 0 80 80" fill="none" xmlns="http://www.w3.org/2000/svg">
<g clip-path="url(#clip0_85_35)">
<mask id="mask0_85_35" style="mask-type:luminance" maskUnits="userSpaceOnUse" x="0" y="0" width="80" height="80">
<path d="M80 0H0V80H80V0Z" fill="white"/>
</mask>
<g mask="url(#mask0_85_35)">
<path d="M36.1412 71.2824C55.5491 71.2824 71.2824 55.5491 71.2824 36.1412C71.2824 16.7333 55.5491 1 36.1412 1C16.7333 1 1 16.7333 1 36.1412C1 55.5491 16.7333 71.2824 36.1412 71.2824Z" fill="#EEEBEA"/>
<path d="M35.6066 54.2132C45.8827 54.2132 54.2132 45.8827 54.2132 35.6066C54.2132 25.3305 45.8827 17 35.6066 17C25.3305 17 17 25.3305 17 35.6066C17 45.8827 25.3305 54.2132 35.6066 54.2132Z" stroke="#0D0E10" stroke-width="2"/>
<g style="mix-blend-mode:multiply">
<path d="M46.1513 33.1513L38.8284 25.8284C37.2663 24.2663 34.7337 24.2663 33.1716 25.8284L25.8487 33.1513C24.2866 34.7134 24.2866 37.2461 25.8487 38.8081L33.1716 46.131C34.7337 47.6931 37.2663 47.6931 38.8284 46.131L46.1513 38.8081C47.7134 37.2461 47.7134 34.7134 46.1513 33.1513Z" fill="#7E5BF6"/>
</g>
<path d="M31 35.9553L33.9553 38.9107L39.866 33" stroke="#0D0E10" stroke-width="2" stroke-linecap="round"/>
<path d="M12.6499 68.2998C15.218 68.2998 17.2998 66.218 17.2998 63.6499C17.2998 61.0818 15.218 59 12.6499 59C10.0818 59 8 61.0818 8 63.6499C8 66.218 10.0818 68.2998 12.6499 68.2998Z" stroke="#0D0E10" stroke-width="2"/>
<path d="M22.4372 80.1374C22.4372 75.6432 18.5338 72 13.7186 72C8.90345 72 5 75.6432 5 80.1374" stroke="#0D0E10" stroke-width="2"/>
<path d="M44.2747 80.1374C44.2747 75.6432 40.6315 72 36.1374 72C31.6432 72 28 75.6432 28 80.1374" stroke="#0D0E10" stroke-width="2"/>
<path d="M67.4372 80.1374C67.4372 75.6432 63.5338 72 58.7186 72C53.9035 72 50 75.6432 50 80.1374" stroke="#0D0E10" stroke-width="2"/>
<path d="M36.6499 68.2998C39.218 68.2998 41.2998 66.218 41.2998 63.6499C41.2998 61.0818 39.218 59 36.6499 59C34.0818 59 32 61.0818 32 63.6499C32 66.218 34.0818 68.2998 36.6499 68.2998Z" stroke="#0D0E10" stroke-width="2"/>
<path d="M59.6499 68.2998C62.218 68.2998 64.2998 66.218 64.2998 63.6499C64.2998 61.0818 62.218 59 59.6499 59C57.0818 59 55 61.0818 55 63.6499C55 66.218 57.0818 68.2998 59.6499 68.2998Z" stroke="#0D0E10" stroke-width="2"/>
</g>
</g>
<defs>
<clipPath id="clip0_85_35">
<rect width="80" height="80" fill="white"/>
</clipPath>
</defs>
</svg>
