<svg width="80" height="80" viewBox="0 0 80 80" fill="none" xmlns="http://www.w3.org/2000/svg">
<path d="M40 71.8848V28" stroke="#0D0E10" stroke-width="2" stroke-linecap="round" stroke-dasharray="4 4"/>
<path d="M52.4609 67.2305C52.4609 60.4758 46.9851 55 40.2304 55C33.4758 55 28 60.4758 28 67.2305V67.3965C28 74.1512 33.4758 79.627 40.2304 79.627C46.9851 79.627 52.4609 74.1512 52.4609 67.3965V67.2305Z" fill="#FBB355"/>
<path d="M40 45.2893H66.9939C69.203 45.2893 70.9939 43.4984 70.9939 41.2893V27" stroke="#0D0E10" stroke-width="2" stroke-linecap="round" stroke-dasharray="4 4"/>
<path d="M39 45.2893H12.0061C9.79696 45.2893 8.0061 43.4984 8.0061 41.2893V27" stroke="#0D0E10" stroke-width="2" stroke-linecap="round"/>
<path d="M9.22567 9.45134C11.5594 9.45134 13.4513 7.55944 13.4513 5.22567C13.4513 2.8919 11.5594 1 9.22567 1C6.8919 1 5 2.8919 5 5.22567C5 7.55944 6.8919 9.45134 9.22567 9.45134Z" stroke="#0D0E10" stroke-width="2"/>
<path d="M15.6521 22.7515V20.0428C15.6521 16.1532 12.596 13 8.82607 13C5.05614 13 2 16.1532 2 20.0428V22.7515" stroke="#0D0E10" stroke-width="2"/>
<path d="M40.2257 9.45134C42.5594 9.45134 44.4513 7.55944 44.4513 5.22567C44.4513 2.8919 42.5594 1 40.2257 1C37.8919 1 36 2.8919 36 5.22567C36 7.55944 37.8919 9.45134 40.2257 9.45134Z" fill="#EEEBEA" stroke="#EEEBEA" stroke-width="2"/>
<path d="M39.8261 13C36.0561 13 33 16.1532 33 20.0428V22.7515H46.6521V20.0428C46.6521 16.1532 43.596 13 39.8261 13Z" fill="#EEEBEA" stroke="#EEEBEA" stroke-width="2"/>
<path d="M71.2257 9.45134C73.5594 9.45134 75.4513 7.55944 75.4513 5.22567C75.4513 2.8919 73.5594 1 71.2257 1C68.8919 1 67 2.8919 67 5.22567C67 7.55944 68.8919 9.45134 71.2257 9.45134Z" fill="#EEEBEA" stroke="#EEEBEA" stroke-width="2"/>
<path d="M70.8261 13C67.0561 13 64 16.1532 64 20.0428V22.7515H77.6521V20.0428C77.6521 16.1532 74.596 13 70.8261 13Z" fill="#EEEBEA" stroke="#EEEBEA" stroke-width="2"/>
</svg>
